<?xml version="1.0" encoding="UTF-8" standalone="no"?>
<!-- Created with Inkscape (http://www.inkscape.org/) -->

<svg
   width="210mm"
   height="210mm"
   viewBox="0 0 210 210"
   version="1.1"
   id="svg1"
   xml:space="preserve"
   inkscape:version="1.4 (e7c3feb100, 2024-10-09)"
   sodipodi:docname="logo.svg"
   inkscape:export-filename="logo.png"
   inkscape:export-xdpi="96"
   inkscape:export-ydpi="96"
   xmlns:inkscape="http://www.inkscape.org/namespaces/inkscape"
   xmlns:sodipodi="http://sodipodi.sourceforge.net/DTD/sodipodi-0.dtd"
   xmlns:xlink="http://www.w3.org/1999/xlink"
   xmlns="http://www.w3.org/2000/svg"
   xmlns:svg="http://www.w3.org/2000/svg"><sodipodi:namedview
     id="namedview1"
     pagecolor="#ffffff"
     bordercolor="#000000"
     borderopacity="0.25"
     inkscape:showpageshadow="2"
     inkscape:pageopacity="0.0"
     inkscape:pagecheckerboard="0"
     inkscape:deskcolor="#d1d1d1"
     inkscape:document-units="mm"
     inkscape:zoom="1.2031628"
     inkscape:cx="194.90297"
     inkscape:cy="285.9131"
     inkscape:window-width="3812"
     inkscape:window-height="2132"
     inkscape:window-x="0"
     inkscape:window-y="0"
     inkscape:window-maximized="1"
     inkscape:current-layer="layer1" /><defs
     id="defs1"><linearGradient
       id="linearGradient1"
       inkscape:collect="always"><stop
         style="stop-color:#e51515;stop-opacity:1;"
         offset="0"
         id="stop1" /><stop
         style="stop-color:#248ede;stop-opacity:1;"
         offset="1"
         id="stop2" /></linearGradient><linearGradient
       inkscape:collect="always"
       xlink:href="#linearGradient1"
       id="linearGradient3"
       gradientUnits="userSpaceOnUse"
       gradientTransform="matrix(1.027151,0,0,1.027151,2.1663472,-0.23361069)"
       x1="152.81393"
       y1="175.84747"
       x2="43.501801"
       y2="30.785357" /></defs><g
     inkscape:label="Layer 1"
     inkscape:groupmode="layer"
     id="layer1"><path
       style="fill:url(#linearGradient3);stroke-width:1.73862"
       d="m 103.52436,197.52736 c -3.22337,-0.92376 -3.932093,-1.27329 -3.616673,-1.78368 0.297473,-0.48132 13.978923,-1.64951 14.398983,-1.22946 0.38658,0.3866 -1.34569,1.80565 -3.33402,2.73119 -2.27918,1.06092 -4.44424,1.14288 -7.44829,0.28195 z m 16.87846,-1.73853 c 0,-0.82233 3.62926,-2.05701 6.67013,-2.26917 4.20832,-0.29363 3.51742,0.37779 -1.70838,1.66026 -4.44169,1.09004 -4.96175,1.15386 -4.96175,0.60891 z m -51.815513,-3.78876 c -2.59655,-1.28528 -6.90218,-7.33665 -5.22012,-7.33665 1.04442,0 15.19279,7.41898 14.93717,7.83259 -0.15213,0.24616 -1.97218,0.4474 -4.04452,0.44722 -2.8715,-2.8e-4 -4.22107,-0.22467 -5.67253,-0.94316 z m 23.64564,0.0139 c -1.5096,-0.92605 -1.72265,-1.99786 -1.24057,-6.24063 0.45814,-4.03181 1.21722,-5.71055 2.58218,-5.71055 0.74492,0 19.950103,8.63038 20.614303,9.2636 0.85954,0.81944 -0.66003,1.15263 -8.86498,1.94387 -4.48332,0.43233 -9.083003,0.88688 -10.221523,1.01009 -1.13853,0.12327 -2.42976,0.003 -2.86941,-0.26638 z m -17.97821,-6.24394 c -5.79065,-2.91654 -9.50481,-5.04391 -9.3938,-5.38051 0.20142,-0.61076 10.55518,-1.60359 17.40488,-1.669 5.50647,-0.0525 5.78293,0.27762 5.15667,6.15877 -0.49069,4.60781 -1.02367,5.77901 -2.61165,5.73913 -0.53827,-0.014 -5.28853,-2.1953 -10.5561,-4.84839 z m 60.063343,4.08832 c -0.56927,-0.10971 -1.03502,-0.40437 -1.03502,-0.65495 0,-0.51848 15.81882,-8.22058 16.88364,-8.22058 0.96313,0 0.53045,0.94368 -2.03419,4.43654 -2.80901,3.82567 -4.72092,4.78596 -9.35959,4.70098 -1.8809,-0.0344 -3.88558,-0.1523 -4.45484,-0.26199 z m -25.78431,-7.24161 c -5.64247,-2.5947 -10.464083,-4.92269 -10.714703,-5.17332 -0.30088,-0.30088 -0.2295,-0.64337 0.21018,-1.00826 0.36621,-0.30392 6.619593,-2.12502 13.896393,-4.04688 13.73006,-3.62621 14.5179,-3.71344 14.828,-1.64172 0.20571,1.3743 -3.54412,14.92571 -4.39177,15.87136 -0.41625,0.46436 -1.32408,0.78629 -2.14533,0.76075 -0.78306,-0.0243 -6.0403,-2.16722 -11.68277,-4.76193 z m 19.3442,4.01809 c -0.31626,-0.11474 -0.57501,-0.70781 -0.57501,-1.31796 0,-1.64635 3.19783,-13.60128 3.9567,-14.79194 1.2054,-1.89124 2.49163,-1.76917 10.89255,1.03382 8.5091,2.83907 9.72266,3.47923 8.59474,4.53366 -0.5976,0.55868 -17.37214,8.72647 -20.91395,10.18335 -0.75901,0.31221 -1.63878,0.47379 -1.95503,0.35907 z m -74.641153,-3.38026 c -5.18316,-3.52003 -6.2865,-4.41396 -5.91118,-4.78927 0.435,-0.435 5.19519,1.19098 6.91401,2.36167 1.83643,1.25082 4.25476,4.40777 3.98846,5.20667 -0.0913,0.27386 -2.33738,-0.97672 -4.99129,-2.77907 z M 156.5679,180.0765 c 0.47608,-0.81586 1.6236,-2.08716 2.55006,-2.8251 1.76498,-1.40583 4.92737,-2.92034 5.30643,-2.54127 0.22085,0.22085 -7.3472,6.34721 -8.24733,6.67623 -0.26111,0.0954 -0.0851,-0.494 0.39084,-1.30986 z m -97.386063,-4.2834 c -1.53681,-1.17993 -1.80018,-2.54061 -1.80018,-9.30054 0,-6.91558 0.33246,-8.51017 1.77424,-8.51017 1.09776,0 23.25496,15.00748 23.44523,15.8799 0.0819,0.37575 -0.125,0.78296 -0.46002,0.90487 -0.50691,0.18452 -20.32563,1.64064 -21.76938,1.59944 -0.25302,-0.007 -0.78846,-0.2653 -1.18989,-0.5735 z m -17.21046,-2.63207 c -4.1557,-1.11804 -5.64844,-2.67879 -7.29726,-7.6297 -1.32467,-3.9776 -1.45141,-4.78888 -0.74825,-4.78888 0.54878,0 13.79561,12.47021 13.79561,12.98681 0,0.58215 -2.33002,0.35189 -5.7501,-0.56823 z m 51.71552,-0.85455 -0.95208,-0.77095 1.61799,-10.72345 c 0.88991,-5.89788 1.86195,-11.0174 2.16013,-11.37664 0.29815,-0.35927 0.98252,-0.64745 1.5208,-0.64039 1.17916,0.0156 24.590883,14.14772 25.300213,15.27224 0.32438,0.51424 0.34133,0.94486 0.0485,1.23392 -0.34129,0.337 -20.69626,5.86936 -27.706853,7.53055 -0.60861,0.14431 -1.42986,-0.0727 -1.98879,-0.52528 z m -45.20893,-3.15037 c -8.53508,-8.09857 -13.63672,-13.26208 -13.63672,-13.80214 0,-0.992 2.15636,-1.18149 9.58486,-0.84233 9.80468,0.44764 9.2755,-0.11962 9.2755,9.94185 0,9.62879 -0.0156,9.64354 -5.22364,4.70262 z m 34.1024,-0.27693 c -2.34758,-1.5969 -7.16637,-4.84367 -10.70843,-7.21506 -7.41132,-4.96179 -9.89018,-6.81259 -9.89018,-7.38426 0,-0.22284 0.36225,-0.59695 0.80501,-0.83133 1.54403,-0.8174 26.92364,-6.11391 28.00086,-5.84354 0.60926,0.15282 1.18651,0.71967 1.32331,1.29925 0.13352,0.5654 -0.4648,5.67404 -1.32947,11.35252 -1.2442,8.17092 -1.74348,10.44983 -2.3936,10.92521 -0.45182,0.33038 -0.98296,0.60068 -1.18033,0.60068 -0.19735,0 -2.27958,-1.30655 -4.62717,-2.90347 z m 63.326883,0.1311 c -9.35615,-3.09325 -10.26526,-3.56293 -9.6129,-4.96644 0.50023,-1.07624 25.36081,-19.86161 26.28485,-19.86161 0.35565,0 0.59938,0.52065 0.59219,1.26502 -0.0198,2.04455 -5.83155,24.55937 -6.50377,25.19553 -1.32208,1.25119 -2.64523,1.05046 -10.76037,-1.6325 z m 21.36966,-0.7926 c 0.74368,-1.34347 11.03485,-11.36067 11.34883,-11.04669 0.54185,0.54184 -1.733,6.40337 -3.08097,7.93862 -0.80223,0.91369 -2.52841,1.99857 -4.32311,2.71705 -3.60065,1.44143 -4.57993,1.5385 -3.94475,0.39102 z m -5.01333,-1.91554 c 0,-1.65487 5.10445,-21.88746 5.7837,-22.92492 1.00582,-1.53629 2.29432,-1.28522 6.78748,1.32256 4.50331,2.61368 5.47286,3.85688 4.33509,5.55871 -1.05857,1.58343 -16.0027,16.92417 -16.48659,16.92417 -0.23082,0 -0.41968,-0.39623 -0.41968,-0.88052 z m -48.32056,-12.67647 c -6.91852,-4.16728 -12.76328,-7.90593 -12.98834,-8.30811 -0.22507,-0.40215 -0.29671,-1.02437 -0.15926,-1.38267 0.30923,-0.80584 30.2833,-15.85296 31.57931,-15.85296 0.51546,0 1.06514,0.33345 1.22152,0.74098 0.15648,0.40755 -0.70934,7.49743 -1.92382,15.7553 -2.22747,15.14562 -2.61629,16.62433 -4.37122,16.62433 -0.42852,0 -6.43972,-3.40958 -13.35822,-7.57687 z m 19.55755,5.71662 c -0.50666,-0.81979 3.98515,-30.01297 4.7568,-30.91535 0.37862,-0.44275 1.16732,-0.80502 1.7527,-0.80502 0.8658,0 13.00843,5.52079 19.94804,9.06961 1.77035,0.90534 2.24741,2.079 1.30845,3.21914 -1.09228,1.32632 -26.10525,19.91184 -26.79794,19.91184 -0.3692,0 -0.8048,-0.21609 -0.96805,-0.48022 z M 25.730597,154.62015 c -1.06125,-1.68038 -1.92955,-3.19589 -1.92955,-3.3678 0,-0.66014 1.98769,1.52817 3.07801,3.38868 1.91312,3.26445 0.91496,3.24632 -1.14846,-0.0208 z m 11.02706,-3.96596 c -5.49407,-0.30263 -6.05488,-0.68627 -6.05895,-4.14484 -0.005,-4.23482 1.48045,-22.35036 1.86585,-22.75501 0.69075,-0.72521 1.70382,0.54591 8.37445,10.50761 3.56889,5.32964 7.17594,10.67141 8.01571,11.87059 1.64497,2.34906 1.96562,4.22299 0.79919,4.6706 -0.80364,0.30839 -5.71568,0.2521 -12.99625,-0.149 z m 21.98967,-1.89875 c -0.39013,-0.72892 -0.0624,-4.24931 1.4238,-15.29526 1.81588,-13.49589 2.47366,-16.41846 3.69539,-16.41846 0.67057,0 25.71739,24.36555 25.7087,25.00939 -0.003,0.28659 -0.18838,0.80739 -0.40998,1.15731 -0.4088,0.64546 -26.22017,6.49322 -28.66233,6.49367 -0.79001,1.6e-4 -1.43502,-0.34765 -1.75558,-0.94665 z m -14.22356,-15.70043 c -4.81937,-7.132 -8.76249,-13.42026 -8.76249,-13.97394 0,-0.55366 0.27821,-1.23756 0.61825,-1.51977 0.34004,-0.28221 5.09412,-1.17398 10.56464,-1.98173 9.85422,-1.45501 9.95553,-1.46037 10.93129,-0.57824 1.15229,1.04168 1.21712,0.0979 -1.21428,17.68068 -1.82134,13.17119 -1.85604,13.34025 -2.73823,13.34025 -0.35018,0 -4.57981,-5.83526 -9.39918,-12.96725 z m 131.880313,8.32771 c -4.26123,-2.47319 -5.19229,-3.50074 -4.66901,-5.15301 0.36174,-1.14223 14.30325,-16.88794 14.95285,-16.88794 0.69622,0 0.48445,2.01748 -1.20039,11.43484 -2.11751,11.83592 -2.03308,11.46941 -2.82402,12.26032 -1.07681,1.07682 -1.95279,0.84532 -6.25943,-1.65421 z m -157.188123,0.23339 c -1.10132,-0.99218 -2.36405,-2.63197 -2.80602,-3.64401 -0.91425,-2.09344 -1.35475,-6.81397 -0.65956,-7.06805 0.54156,-0.19794 5.91049,11.18859 5.64754,11.97742 -0.10397,0.31212 -1.02157,-0.21999 -2.18196,-1.26536 z m 6.03591,-0.0789 c -4.24898,-8.44462 -8.83951,-19.08023 -8.58361,-19.88653 0.41087,-1.29452 1.30836,-1.67297 5.45343,-2.29948 4.19479,-0.63403 5.70459,-0.38224 6.2296,1.03893 0.27117,0.73405 -0.91419,21.60712 -1.29237,22.75756 -0.19641,0.59748 -1.10261,-0.20992 -1.80705,-1.61003 z m 73.26631,-2.15318 c -0.75148,-0.54951 -0.67098,-1.41578 1.35374,-14.5683 2.250613,-14.61987 2.414363,-15.15419 4.633543,-15.11914 0.5209,0.009 6.5362,2.89104 13.36732,6.40626 10.85645,5.58658 12.42022,6.52587 12.42022,7.46016 0,0.9403 -1.71561,1.93731 -14.26025,8.28718 -16.529683,8.36702 -16.432363,8.32515 -17.514573,7.53384 z m -19.17551,-12.82126 c -6.7703,-6.62811 -12.30765,-12.39309 -12.30523,-12.81111 0.007,-1.14972 1.42062,-1.47109 15.99896,-3.63626 l 13.46452,-1.99975 0.98414,0.98415 0.98416,0.98417 -2.13321,13.85644 c -1.17326,7.62104 -2.25354,14.05112 -2.40059,14.28907 -0.87795,1.42057 -2.76902,-0.0913 -14.59275,-11.66671 z m 108.681713,11.06432 c 1.5e-4,-0.31625 0.61795,-3.99056 1.37286,-8.16514 0.75492,-4.17459 1.37578,-7.74538 1.37973,-7.93514 0.003,-0.18975 0.27691,-0.34501 0.60661,-0.34501 0.94792,0 2.76371,6.21228 2.40074,8.21355 -0.16726,0.92215 -1.35081,3.28091 -2.63016,5.2417 -2.21152,3.38947 -3.13046,4.26741 -3.12978,2.99004 z m -35.07941,-8.33666 c -5.4981,-2.62439 -10.30822,-5.03029 -10.68915,-5.34642 -1.70774,-1.4173 -0.90492,-2.44896 10.3406,-13.2881 6.06825,-5.84897 11.23605,-10.63451 11.48402,-10.63451 1.26677,0 1.43515,2.22953 1.30584,17.29053 -0.12606,14.6755 -0.17712,15.47761 -1.02556,16.0976 -0.49112,0.35889 -1.01136,0.65251 -1.15607,0.65251 -0.14465,0 -4.76157,-2.14723 -10.25968,-4.77161 z m 16.05375,0.97654 c -0.42991,-1.63405 -0.25533,-28.51908 0.19267,-29.67056 0.22148,-0.56925 0.78459,-1.035012 1.25134,-1.035012 1.07011,0 14.59909,9.813452 15.56838,11.292782 0.50312,0.76787 0.60269,1.43602 0.33117,2.22234 -0.55846,1.6173 -15.42302,18.21183 -16.31991,18.21926 -0.41324,0.003 -0.87389,-0.45955 -1.02365,-1.02881 z M 118.92868,112.6667 c -12.15649,-6.1228 -13.60488,-7.10977 -13.04094,-8.88656 0.36075,-1.13661 21.19403,-21.238594 22.01124,-21.238594 0.36923,0 0.87352,0.258757 1.12063,0.575011 0.54754,0.700766 4.84868,32.439823 4.64118,34.248253 -0.11388,0.99299 -0.41071,1.31046 -1.29774,1.38824 -0.70929,0.0623 -5.85802,-2.2704 -13.43437,-6.08635 z m 19.0687,4.72049 c -0.57333,-0.71911 -4.82935,-32.405326 -4.63028,-34.472434 0.0991,-1.029225 0.41462,-1.56663 0.983,-1.674355 0.46037,-0.08728 6.83035,2.687916 14.15549,6.167092 11.06359,5.25477 13.36493,6.510781 13.59278,7.418563 0.18121,0.722029 -0.0174,1.418205 -0.58527,2.051861 -2.97335,3.317603 -21.83774,21.084293 -22.38698,21.084293 -0.36867,0 -0.87661,-0.25876 -1.12874,-0.57502 z m 56.42265,-0.6151 c -1.39964,-3.48358 -0.65664,-9.69408 1.35997,-11.36773 0.56317,-0.46739 0.60777,0.32267 0.31966,5.66232 -0.35168,6.51774 -0.77523,7.95643 -1.67963,5.70541 z M 16.095907,115.61467 c -0.31625,-0.32809 -0.57501,-1.3586 -0.57501,-2.29001 0,-2.59543 2.71895,-20.805832 3.17447,-21.261349 0.57602,-0.57602 0.7261,-0.256567 4.90232,10.435989 4.91336,12.57987 4.89277,12.6544 -3.70671,13.42381 -2.3513,0.21037 -3.37519,0.12708 -3.79507,-0.30844 z m 18.70856,-3.29961 c -0.39034,-0.85668 0.3267,-3.59554 3.94409,-15.065271 2.43165,-7.710025 4.63336,-14.690996 4.89269,-15.513258 0.58732,-1.862212 1.87011,-1.972214 2.6822,-0.23 3.35352,7.194456 11.05821,25.691039 11.05821,26.547369 0,0.94696 -1.03334,2.54815 -1.64448,2.54815 -0.10936,0 -4.3374,0.62102 -9.39572,1.38003 -5.05833,0.75902 -9.61612,1.38003 -10.12844,1.38003 -0.52275,0 -1.14081,-0.45943 -1.40855,-1.04705 z m -4.88115,-4.11273 c -0.421,-0.5451 -6.62739,-16.126536 -8.12526,-20.398868 -0.54401,-1.551696 -0.55411,-2.108087 -0.0596,-3.284139 0.51602,-1.227235 1.22952,-1.659385 5.35407,-3.242829 11.81484,-4.535801 13.75776,-4.96164 13.70805,-3.004464 -0.0381,1.501293 -9.41361,30.18473 -9.92152,30.35406 -0.27488,0.0916 -0.70494,-0.0991 -0.9557,-0.42376 z m 36.73328,0.15561 c -0.33841,-0.2145 -0.54541,-0.82698 -0.46002,-1.36108 0.30277,-1.89385 16.23113,-31.331344 17.11186,-31.624753 0.47453,-0.158039 1.11638,-0.0087 1.43964,0.337031 0.9581,1.022044 12.19431,25.430712 12.19431,26.489932 0,0.8304 -1.06455,2.42287 -1.61966,2.42287 -0.0956,0 -6.2901,0.93153 -13.76541,2.07005 -15.22757,2.31922 -14.07365,2.19019 -14.90072,1.66595 z m -55.2378,-0.90502 c -0.91563,-1.71084 -1.9467298,-7.14877 -1.6675098,-8.794175 0.5129098,-3.022391 5.4543798,-20.943559 5.9027398,-21.407317 0.75466,-0.780603 -0.0383,8.446902 -1.71301,19.934397 -0.86068,5.903815 -1.66856,10.837905 -1.79527,10.964595 -0.12675,0.12675 -0.45383,-0.18716 -0.72695,-0.6975 z m 168.490733,-6.08879 c -3.50665,-2.550805 -6.84148,-5.149894 -7.41076,-5.775761 -1.84249,-2.025694 -1.43242,-2.888013 4.3158,-9.075411 2.94294,-3.167791 5.67073,-5.882394 6.06179,-6.032454 0.39102,-0.150042 0.97248,-0.007 1.29211,0.319089 0.65932,0.671504 3.96587,23.459697 3.55819,24.522157 -0.14362,0.37411 -0.52661,0.68021 -0.85121,0.68021 -0.3246,0 -3.45927,-2.08701 -6.96592,-4.63783 z m -119.201853,3.60282 c -0.96818,-1.19285 -12.06617,-27.43032 -12.06617,-28.526394 0,-0.630578 0.31589,-1.408678 0.70196,-1.729088 0.735,-0.609992 27.99448,-3.417594 29.0922,-2.996345 0.323,0.123964 0.70783,0.539561 0.85521,0.923604 0.29339,0.764556 -15.58551,31.371253 -16.77203,32.328223 -0.39211,0.31625 -0.85503,0.57501 -1.0287,0.57501 -0.17369,0 -0.52578,-0.25876 -0.78247,-0.57501 z m 130.536443,-2.60234 c 0,-0.22952 -0.5175,-3.974811 -1.15001,-8.322878 -0.63252,-4.348066 -1.15002,-8.300354 -1.15002,-8.782872 0,-1.623465 1.14517,-0.896221 3.50795,2.227756 2.98765,3.950133 3.39217,4.752643 3.39217,6.729395 0,2.109792 -2.92729,8.565899 -3.8839,8.565899 -0.3939,0 -0.71619,-0.18779 -0.71619,-0.4173 z m -89.87502,-1.82658 c -0.56375,-0.22146 -2.997553,-4.880082 -7.012573,-13.422921 -3.38206,-7.196056 -6.15033,-13.317144 -6.15174,-13.602415 -0.009,-1.745778 1.06002,-1.675485 18.492103,1.216161 9.43581,1.565222 17.31125,2.940588 17.501,3.056379 0.18976,0.115792 0.34501,0.688979 0.34501,1.273797 0,0.784758 -2.82473,3.790058 -10.7837,11.473047 -5.93106,5.725379 -10.9509,10.395252 -11.15522,10.377472 -0.20432,-0.0178 -0.76002,-0.18498 -1.23488,-0.37152 z m 48.24426,-16.599386 c -14.87282,-7.053143 -14.12146,-6.608561 -13.94474,-8.251256 0.11666,-1.084531 1.68636,-2.723139 8.15642,-8.514622 8.37915,-7.50033 9.52146,-8.150102 10.78852,-6.136631 1.02392,1.627118 8.70073,26.941467 8.40441,27.713654 -0.14605,0.380531 -0.63425,0.68079 -1.08494,0.667246 -0.45071,-0.01391 -5.99456,-2.478812 -12.31967,-5.478391 z m 18.24253,4.637353 c -0.68072,-0.431436 -1.41122,-2.538324 -5.88055,-16.960601 -2.9692,-9.581452 -3.27456,-11.560743 -1.68966,-10.952575 0.42591,0.16343 5.19053,3.119717 10.58805,6.569493 9.9199,6.34024 10.75138,7.099702 10.05134,9.180911 -0.35033,1.041516 -11.35956,12.576007 -11.99136,12.563471 -0.253,-0.0052 -0.73802,-0.185336 -1.07782,-0.400699 z m 22.96541,-9.20758 c -2.32269,-2.932625 -3.23588,-5.436126 -3.24714,-8.902106 -0.005,-1.707789 0.17976,-3.105062 0.41181,-3.105062 0.33912,0 3.25245,7.89764 4.70891,12.765239 0.46475,1.553174 -0.2825,1.250829 -1.87358,-0.758071 z M 23.058017,77.739144 c -0.24245,-0.631829 10.50071,-22.059784 11.31103,-22.560575 1.06226,-0.656518 1.97727,0.854929 4.33862,7.166831 1.41555,3.783693 2.57371,7.156746 2.57371,7.495636 0,1.789695 -1.96105,2.988643 -9.40441,5.749685 -4.16753,1.545907 -7.79951,2.810731 -8.07107,2.810731 -0.27155,0 -0.60809,-0.298033 -0.74788,-0.662308 z m 83.470233,-6.67395 c -8.769563,-1.473649 -16.169943,-2.818607 -16.445323,-2.9888 -1.34184,-0.829301 0.0961,-2.554667 10.134923,-12.159557 10.92468,-10.452567 11.85712,-11.104774 13.3974,-9.370975 1.24776,1.404522 12.34885,25.133428 12.21033,26.099925 -0.10096,0.705286 -0.51583,0.946187 -1.74268,1.012169 -0.88553,0.04764 -8.78511,-1.119112 -17.55465,-2.592762 z m -86.552933,1.977153 c -0.17282,-0.172818 -0.31168,-2.298118 -0.30843,-4.722738 0.005,-3.606356 0.19316,-4.800992 1.03503,-6.566138 1.16727,-2.447448 14.26366,-18.169669 14.5127,-17.422535 0.149,0.44712 -13.79597,27.871347 -14.58005,28.673092 -0.1897,0.193959 -0.48636,0.211207 -0.65925,0.03825 z M 129.95502,71.156315 c -0.39082,-0.442756 -1.33427,-2.150527 -2.09655,-3.795066 -0.76227,-1.644537 -3.17931,-6.716127 -5.3712,-11.270203 -4.15955,-8.642304 -4.82186,-10.4856 -3.9591,-11.018799 0.55364,-0.342177 28.08157,8.61433 29.82017,9.702303 1.80646,1.130447 1.23111,2.216891 -3.45007,6.514867 -12.25116,11.248297 -13.1816,11.862653 -14.94325,9.866898 z M 50.572167,69.086286 c 0.10884,-0.569257 4.19658,-5.951365 9.08386,-11.960225 9.40418,-11.56236 10.19249,-12.227484 11.72196,-9.890178 0.3725,0.569257 2.46313,4.839207 4.64584,9.488784 4.01399,8.550524 4.4181,10.16215 2.71228,10.816739 -0.86629,0.332405 -23.99568,2.5756 -26.58316,2.578156 -1.59686,0.0015 -1.75843,-0.103969 -1.58078,-1.033276 z M 169.80668,62.256139 c -4.7812,-3.060831 -9.05536,-5.88747 -9.49811,-6.281423 -1.62667,-1.447361 -1.01899,-2.912597 2.77021,-6.679584 3.69903,-3.677343 4.90115,-4.210836 6.19496,-2.74927 0.8182,0.924317 10.47017,20.109197 10.47017,20.811215 0,1.051027 -1.65234,0.202844 -9.93723,-5.100938 z M 44.324107,66.326236 c -0.9062,-1.424239 -5.34278,-13.496987 -5.34278,-14.53866 0,-1.831805 1.69941,-2.481907 12.9979,-4.972299 10.67798,-2.353632 12.30256,-2.563135 12.30256,-1.586572 0,0.507536 -15.75279,20.129278 -17.12223,21.327531 -1.23375,1.079524 -2.04407,1.013787 -2.83545,-0.23 z M 179.06488,57.263012 c -2.14731,-4.289023 -3.72155,-7.911096 -3.49827,-8.04909 0.67871,-0.419458 6.76135,4.656148 7.52438,6.278676 0.79597,1.692558 0.96415,3.042819 0.86237,6.923563 -0.0381,1.454769 -0.27523,2.645042 -0.52682,2.645042 -0.2516,0 -2.21435,-3.509186 -4.36166,-7.798191 z m -95.313273,6.520274 c -0.84495,-0.537424 -8.88962,-17.925742 -8.88962,-19.214647 0,-0.811828 0.34742,-1.282697 1.17996,-1.599229 0.6738,-0.256167 7.24667,-0.448615 15.32236,-0.448615 11.519323,0 14.308023,0.121703 15.035333,0.65584 0.8679,0.637446 0.85425,0.696889 -0.48707,2.119267 -0.75903,0.804892 -5.45329,5.374353 -10.431713,10.154361 -8.94409,8.587642 -10.07063,9.387979 -11.72925,8.333023 z M 132.82305,45.566395 c -11.88589,-4.07778 -13.58802,-4.780528 -13.71347,-5.661937 -0.16534,-1.161029 0.25708,-1.569238 7.73337,-7.474355 5.74641,-4.538792 6.95001,-5.115734 8.60616,-4.125297 1.21464,0.72641 14.03451,21.041737 13.66032,21.647193 -0.51255,0.829337 -3.17787,0.111619 -16.28638,-4.385604 z m 21.24153,3.969535 c -0.85259,-0.729521 -11.78611,-17.77495 -12.35888,-19.267534 -0.14744,-0.384286 0.0741,-0.627831 0.57091,-0.627831 1.07608,0 20.51358,10.013394 21.25201,10.948142 1.14783,1.453048 0.58664,2.582521 -3.06714,6.173091 -3.78294,3.717487 -4.78602,4.152489 -6.3969,2.774132 z M 43.662687,44.104013 c 0.24645,-1.187753 16.59241,-15.840465 17.67275,-15.842064 0.53006,-7.83e-4 1.26772,0.360849 1.63926,0.803605 1.10419,1.315835 3.60714,7.223577 3.60714,8.513977 0,1.371002 -0.99251,2.535526 -2.44721,2.871356 -3.49348,0.806492 -20.05528,4.369956 -20.31013,4.369956 -0.17073,0 -0.24361,-0.322582 -0.16186,-0.71683 z m -1.46131,-5.278574 c 0,-1.099517 2.36461,-5.017345 3.71299,-6.15193 2.13778,-1.798823 7.20419,-3.780617 6.81219,-2.664688 -0.21893,0.623241 -9.70952,9.281715 -10.18017,9.287609 -0.18975,0.0017 -0.34501,-0.209573 -0.34501,-0.470991 z m 48.79891,0.02365 c -9.25567,-0.162913 -13.58557,-0.398599 -13.70096,-0.74547 -0.15056,-0.452388 14.4195,-13.520005 18.12143,-16.252829 2.50023,-1.845713 3.39,-1.083487 8.536773,7.313047 4.12697,6.732855 5.0574,8.836265 4.14007,9.359362 -0.84247,0.480414 -4.43445,0.548881 -17.097313,0.325885 z m 20.961153,-3.803375 c -2.46845,-3.271412 -8.50875,-13.792863 -8.27224,-14.40922 0.13839,-0.360832 0.79887,-0.654988 1.46756,-0.653666 1.51407,0.0035 22.87475,3.965067 23.5171,4.362044 1.12152,0.693151 0.13684,1.855902 -5.16597,6.100711 -7.3006,5.843901 -7.67836,6.095149 -9.16412,6.095149 -0.87699,0 -1.59358,-0.449693 -2.38233,-1.495018 z m -41.893213,0 c -0.37118,-0.569257 -1.32338,-2.561832 -2.11598,-4.427938 -1.51761,-3.572992 -1.54499,-5.209828 -0.1,-5.972958 0.82646,-0.436445 20.06557,-4.20437 21.46766,-4.20437 0.44865,0 0.72552,0.285219 0.64103,0.660361 -0.0817,0.363214 -3.85914,3.882274 -8.39407,7.820148 -8.81807,7.657085 -10.06607,8.321827 -11.49869,6.124757 z m 83.915203,-3.847345 c -3.66856,-1.91844 -6.97324,-3.77827 -7.3437,-4.132948 -0.58348,-0.558599 -0.4604,-0.642852 0.92002,-0.629813 3.80819,0.03599 7.91247,0.86025 9.45373,1.898637 2.26154,1.523687 5.30897,6.386713 3.98508,6.359313 -0.18974,-0.0035 -3.34655,-1.576768 -7.01513,-3.495189 z m -16.86738,-9.769402 c -2.5878,-0.894291 -6.1682,-3.353508 -5.3025,-3.642084 0.59561,-0.198532 10.18337,3.384596 10.87667,4.064829 0.75468,0.74044 -3.04128,0.45256 -5.57417,-0.422745 z m -19.86906,-3.071419 c -4.39226,-0.849973 -8.11233,-1.671817 -8.26683,-1.82631 -0.47821,-0.478188 0.86168,-1.042752 4.84712,-2.042316 5.10767,-1.281047 7.09241,-0.771197 10.99246,2.823736 1.88002,1.732929 2.24065,2.719523 0.96104,2.629029 -0.30132,-0.02138 -4.14153,-0.734183 -8.53379,-1.584139 z m -43.079343,0.695881 c -0.36905,-0.597145 4.79366,-3.514036 7.59446,-4.290797 2.95302,-0.818974 21.211553,-1.544154 19.415203,-0.77111 -0.58035,0.249735 -6.479963,1.49686 -13.110253,2.771386 -6.63028,1.274526 -12.4171,2.396924 -12.85961,2.494234 -0.44251,0.09736 -0.91041,0.0052 -1.0398,-0.203713 z"
       id="path1-9" /></g></svg>
