<?xml version="1.0" encoding="UTF-8" standalone="no"?>
<!-- Created with Inkscape (http://www.inkscape.org/) -->

<svg
   width="210mm"
   height="210mm"
   viewBox="0 0 210 210"
   version="1.1"
   id="svg1"
   xml:space="preserve"
   inkscape:version="1.4 (e7c3feb100, 2024-10-09)"
   sodipodi:docname="logo.svg"
   xmlns:inkscape="http://www.inkscape.org/namespaces/inkscape"
   xmlns:sodipodi="http://sodipodi.sourceforge.net/DTD/sodipodi-0.dtd"
   xmlns:xlink="http://www.w3.org/1999/xlink"
   xmlns="http://www.w3.org/2000/svg"
   xmlns:svg="http://www.w3.org/2000/svg"><sodipodi:namedview
     id="namedview1"
     pagecolor="#ffffff"
     bordercolor="#000000"
     borderopacity="0.25"
     inkscape:showpageshadow="2"
     inkscape:pageopacity="0.0"
     inkscape:pagecheckerboard="0"
     inkscape:deskcolor="#d1d1d1"
     inkscape:document-units="mm"
     inkscape:zoom="1.2031628"
     inkscape:cx="588.8646"
     inkscape:cy="408.92221"
     inkscape:window-width="3812"
     inkscape:window-height="2132"
     inkscape:window-x="0"
     inkscape:window-y="0"
     inkscape:window-maximized="1"
     inkscape:current-layer="layer1" /><defs
     id="defs1"><linearGradient
       id="linearGradient5"
       inkscape:collect="always"><stop
         style="stop-color:#0095ff;stop-opacity:1;"
         offset="0"
         id="stop5" /><stop
         style="stop-color:#ff651a;stop-opacity:1;"
         offset="1"
         id="stop6" /></linearGradient><linearGradient
       inkscape:collect="always"
       xlink:href="#linearGradient5"
       id="linearGradient6"
       x1="34.874485"
       y1="50.692677"
       x2="173.33759"
       y2="162.81789"
       gradientUnits="userSpaceOnUse"
       gradientTransform="matrix(1.0776882,0,0,1.0776882,-8.087813,-8.2936281)" /></defs><g
     inkscape:label="Layer 1"
     inkscape:groupmode="layer"
     id="layer1"><path
       style="fill:url(#linearGradient6);fill-rule:nonzero;stroke-width:2.23768"
       d="m 110.58289,200.87108 c -6.3593,-3.27052 1.30629,-11.47584 22.91803,-24.53169 18.14387,-10.96089 44.04944,-22.95685 53.25044,-24.65842 l 1.92417,-0.35582 v 0.84125 c 0,0.85085 -5.6624,9.56983 -9.47284,14.58627 l -2.07216,2.72802 -2.66422,0.70671 c -12.00736,3.18514 -38.5484,16.63811 -44.84788,22.73227 -3.44842,3.336 -3.27121,3.5927 2.22019,3.21633 5.87448,-0.40266 5.88325,-0.25838 0.0954,1.57006 -9.51668,3.00631 -18.94271,4.40361 -21.35099,3.16502 z m -27.7231,-0.73847 C 61.807958,195.55849 60.203345,188.71205 76.555367,173.23351 99.063095,151.92807 173.8563,111.97337 196.97128,108.90707 l 3.13998,-0.41653 -0.34199,5.2691 c -0.18819,2.89801 -0.7989,7.8256 -1.35734,10.95016 l -1.01537,5.68103 -3.02841,0.7665 c -8.55357,2.16492 -31.48088,11.94786 -50.09646,21.37589 -42.45844,21.50348 -62.826423,38.51293 -56.201902,46.93464 l 1.227072,1.55998 -1.375073,-0.047 c -0.756311,-0.0259 -3.034196,-0.40754 -5.061997,-0.84814 z m 10.495494,-9.73131 c 0,-1.2682 9.543996,-9.33684 16.823036,-14.22247 l 4.68599,-3.14519 6.26696,-1.34361 c 5.32845,-1.14239 14.79171,-3.37381 20.18016,-4.75841 0.81407,-0.20922 -1.85015,1.59028 -5.9205,3.99877 -9.43822,5.58477 -16.40037,10.22065 -21.49701,14.31408 l -4.03154,3.23795 -4.84924,0.6838 c -10.084548,1.42196 -11.657856,1.58864 -11.657856,1.23508 z m -49.140252,-7.90111 c -2.11657,-1.66762 -5.893093,-5.07195 -8.392283,-7.5652 l -4.543932,-4.53314 -0.677276,-2.51521 c -0.898873,-3.33821 -0.321375,-6.32417 2.196612,-11.35732 l 2.083722,-4.16511 5.697072,-5.93554 C 52.56612,133.93976 70.885259,121.03308 99.571807,104.86549 125.63365,90.177172 172.40332,68.143605 186.20615,64.051348 l 3.15509,-0.935436 2.04163,4.418822 c 1.87911,4.067106 4.92889,12.728671 5.72764,16.266971 l 0.33413,1.480131 -10.8995,4.302934 c -87.085928,34.38 -146.967279,74.633 -139.086058,93.49543 1.21141,2.8993 1.134679,2.88567 -3.26405,-0.58001 z m 18.353601,-21.99995 c 3.324958,-3.60794 17.877154,-14.01789 28.822376,-20.61815 l 5.220561,-3.14812 7.40063,-1.32669 c 8.32508,-1.49243 30.19438,-6.24944 34.487,-7.50166 4.16229,-1.21418 3.60361,-0.80486 -5.32846,3.90375 -15.39987,8.11809 -32.43173,18.27861 -41.567644,24.79753 l -4.268139,3.04552 -6.610669,0.81224 c -3.635862,0.44672 -9.541328,0.99885 -13.123239,1.22696 l -6.512549,0.41473 z m -37.993886,-3.70555 -1.582728,-0.98189 -0.405893,-3.4972 c -0.439545,-3.78721 0.09353,-11.54461 0.880817,-12.81851 l 0.487051,-0.78809 4.95007,0.95321 c 2.722555,0.52427 6.352665,1.12649 8.066948,1.33826 l 3.116878,0.38504 -2.590913,2.76988 c -3.403368,3.63848 -7.683433,9.48204 -8.644536,11.80239 -0.857656,2.07052 -1.946016,2.28346 -4.277694,0.83691 z m -7.974219,-9.4955 c -0.501484,-1.22111 -1.404139,-3.34969 -2.005917,-4.73018 -0.601777,-1.38048 -1.939057,-5.49289 -2.971742,-9.13866 l -1.8776094,-6.62869 0.3685224,-2.68875 C 12.215472,108.77938 38.912841,86.299934 84.178495,61.749654 110.23247,47.619015 142.83542,33.232004 157.4606,29.411735 l 2.23598,-0.584054 4.2766,3.440713 c 2.35211,1.892401 6.07906,5.280642 8.2821,7.529414 l 4.00553,4.088678 -10.73528,4.318619 C 89.995125,78.589671 31.076509,114.99958 20.098057,138.07483 l -2.019545,4.24477 -0.104956,3.59833 c -0.123295,4.22907 -0.180133,4.28626 -1.373105,1.38126 z m 28.39628,-31.06764 C 49.129186,112.68871 60.96205,104.6605 70.939076,98.630505 l 9.850596,-5.953552 11.653782,-2.069857 c 14.865516,-2.640298 27.775226,-5.44699 43.835546,-9.530253 0.65126,-0.165587 -4.94364,2.862098 -12.43308,6.728149 -17.60833,9.089439 -25.968024,13.688778 -39.213625,21.574468 l -10.795164,6.42685 -8.15048,0.82735 c -4.482754,0.45503 -11.480743,0.98704 -15.551092,1.18221 L 42.7349,118.17074 Z M 8.1027625,99.787086 C 8.1118151,92.783556 11.684495,79.118947 14.727842,74.447871 25.994013,57.15589 73.729588,27.896092 112.94122,14.247402 l 5.91453,-2.058705 4.27125,0.896525 c 5.02142,1.05401 11.2648,2.865631 14.42203,4.184784 l 2.24376,0.937518 -4.1251,1.327859 C 85.566367,35.662969 19.940167,76.422975 9.7936822,97.714918 L 8.1008604,101.26722 Z M 38.886573,73.243107 c 0,-0.698019 14.782697,-10.305113 24.228388,-15.745749 l 7.946986,-4.577362 5.078131,-0.877301 c 5.68443,-0.982004 21.203636,-4.357334 27.917212,-6.071795 5.76338,-1.471807 5.71191,-1.289346 -0.47232,1.6749 -11.08808,5.314765 -35.452877,18.677278 -44.536556,24.425438 l -2.63213,1.665612 h -8.764857 c -4.820665,0 -8.764854,-0.222201 -8.764854,-0.493743 z M 51.36977,35.992666 c -5.758229,-2.947865 -1.96244,-7.529324 12.07914,-14.579338 8.623794,-4.329831 11.659354,-4.423814 5.035035,-0.155742 -5.33994,3.440468 -3.104437,4.67374 6.141004,3.387815 2.533741,-0.35241 4.920533,-0.635164 5.304002,-0.628316 0.38347,0.0067 -4.14896,2.51152 -10.072104,5.565968 -5.923122,3.054445 -11.377474,5.979511 -12.120761,6.50015 -1.752994,1.227834 -3.849426,1.19805 -6.366316,-0.09041 z"
       id="path5" /></g></svg>
